<svg width="25" height="24" viewBox="0 0 25 24" fill="none" xmlns="http://www.w3.org/2000/svg">
<path d="M14.7 9C14.7 10.3807 13.5807 11.5 12.2 11.5C10.8193 11.5 9.69995 10.3807 9.69995 9C9.69995 7.61929 10.8193 6.5 12.2 6.5C13.5807 6.5 14.7 7.61929 14.7 9Z" stroke="#0B5D1E" stroke-width="1.5"/>
<path d="M18.4221 17C19.8166 18.9885 20.4837 20.0475 20.0864 20.8999C20.0465 20.9854 19.9998 21.0679 19.9468 21.1467C19.3723 22 17.8874 22 14.9177 22H9.48218C6.51246 22 5.0276 22 4.45306 21.1467C4.4 21.0679 4.35334 20.9854 4.3135 20.8999C3.91614 20.0475 4.58321 18.9885 5.97773 17" stroke="#0B5D1E" stroke-width="1.5" stroke-linecap="round" stroke-linejoin="round"/>
<path d="M13.4574 17.4936C13.1201 17.8184 12.6693 18 12.2002 18C11.731 18 11.2802 17.8184 10.9429 17.4936C7.85425 14.5008 3.71514 11.1575 5.73366 6.30373C6.82505 3.67932 9.44489 2 12.2002 2C14.9554 2 17.5752 3.67933 18.6666 6.30373C20.6826 11.1514 16.5536 14.5111 13.4574 17.4936Z" stroke="#0B5D1E" stroke-width="1.5"/>
</svg>
